<svg width="512" height="512" viewBox="0 0 512 512" fill="none" xmlns="http://www.w3.org/2000/svg">
<rect x="201.317" y="19" width="271.531" height="406.839" rx="9" transform="rotate(19.0351 201.317 19)" fill="#198741"/>
<rect x="118.103" y="48.2558" width="271.531" height="406.839" rx="9" transform="rotate(9.06542 118.103 48.2558)" fill="#1FA350"/>
<rect x="54" y="85.7398" width="271.531" height="406.839" rx="9" fill="#22C55E"/>
<path d="M156.75 384.154C155.362 383.568 154.209 382.535 153.472 381.219C152.736 379.903 152.458 378.379 152.682 376.887L165.021 296.409H132.273C131.235 296.437 130.205 296.226 129.261 295.791C128.317 295.357 127.485 294.711 126.83 293.904C126.175 293.097 125.714 292.15 125.482 291.136C125.25 290.122 125.254 289.068 125.493 288.055L145.834 199.767C146.192 198.247 147.061 196.898 148.296 195.945C149.531 194.993 151.056 194.496 152.614 194.537H220.415C221.428 194.534 222.428 194.758 223.343 195.193C224.259 195.627 225.065 196.262 225.703 197.05C226.35 197.847 226.808 198.78 227.043 199.78C227.278 200.78 227.284 201.821 227.059 202.823L215.33 255.66H247.535C248.806 255.658 250.052 256.013 251.13 256.685C252.209 257.358 253.078 258.32 253.637 259.463C254.123 260.561 254.31 261.767 254.179 262.96C254.048 264.153 253.604 265.29 252.891 266.255L164.75 381.709C164.154 382.594 163.359 383.325 162.428 383.845C161.498 384.364 160.458 384.656 159.394 384.698C158.487 384.681 157.59 384.496 156.75 384.154Z" fill="#F9FAFB"/>
</svg>
